<svg xmlns="http://www.w3.org/2000/svg" viewBox="0 0 64 64" fill="none">
  <defs>
    <linearGradient id="g" x1="0%" y1="0%" x2="100%" y2="100%">
      <stop offset="0%" stop-color="#3b82f6"/>
      <stop offset="50%" stop-color="#06b6d4"/>
      <stop offset="100%" stop-color="#8b5cf6"/>
    </linearGradient>
  </defs>
  <rect width="64" height="64" rx="14" fill="#0f172a"/>
  <path d="M32 10C23.2 10 16 17.2 16 26c0 6.4 3.8 12 9.4 14.8L32 54l6.6-13.2C44.2 38 48 32.4 48 26 48 17.2 40.8 10 32 10z" fill="url(#g)" opacity="0.2"/>
  <path d="M32 14C25.4 14 20 19.4 20 26c0 4.8 2.8 9 7 11.2V50l5-8 5 8V37.2c4.2-2.2 7-6.4 7-11.2 0-6.6-5.4-12-12-12z" fill="none" stroke="url(#g)" stroke-width="2.5" stroke-linejoin="round"/>
  <path d="M28 26l4 4 6-8" fill="none" stroke="url(#g)" stroke-width="2.5" stroke-linecap="round" stroke-linejoin="round"/>
</svg>
